#N canvas -693 380 547 300 10;
#X declare -path ../Data -path ../Effects -path ../Misc -path ../Signal
-path ../Sources -path ../Unity;
#X obj 22 267 outlet~ left;
#X obj 140 266 outlet~ right;
#X obj 22 13 declare -path ../Data -path ../Effects -path ../Misc -path
../Signal -path ../Sources -path ../Unity;
#X obj 22 46 inlet patterns;
#X obj 286 46 inlet messages;
#X obj 278 124 route Play Stop Step Sleep;
#X text 21 -8 Input:;
#X obj 53 128 osc~;
#X obj 54 84 unpack f f;
#X obj 95 174 *~;
#X text 201 94 fuck;
#X msg 243 74 Stop;
#X floatatom 225 187 5 0 0 0 - - -, f 5;
#X connect 3 0 8 0;
#X connect 4 0 5 0;
#X connect 5 1 12 0;
#X connect 7 0 9 0;
#X connect 8 0 7 0;
#X connect 8 1 9 1;
#X connect 9 0 0 0;
#X connect 9 0 1 0;
#X connect 11 0 5 0;
#X connect 12 0 9 1;
