#N canvas 793 204 775 634 10;
#X obj 56 124 mtof;
#X obj 69 152 nbx 5 14 -1e+037 1e+037 0 0 empty empty empty 0 -8 0
10 -262144 -1 -1 0 256;
#X obj 57 188 osc~;
#X obj 56 98 nbx 5 14 -1e+037 1e+037 0 0 empty empty empty 0 -8 0 10
-262144 -1 -1 0 256;
#X obj 382 298 snapshot~;
#X floatatom 382 321 0 0 0 0 - - -;
#X obj 382 269 metro 100;
#X obj 382 243 tgl 15 0 empty empty empty 17 7 0 10 -262144 -1 -1 0
1;
#X obj 319 169 bng 15 250 50 0 empty empty empty 17 7 0 10 -262144
-1 -1;
#X text 378 345 Watch the amplitude of the signal;
#X text 344 169 trigger a note;
#X text 119 99 Set the pitch (midi integer);
#X text 32 21 [ SIMPLE_NOTE.PD ] Abstraction to show a simple enveloped
oscillator.;
#X obj 56 66 inlet;
#X obj 319 69 inlet;
#X obj 100 330 inlet;
#X obj 100 381 nbx 5 14 0 1 0 0 empty empty empty 0 -8 0 10 -262144
-1 -1 0 256;
#X obj 100 410 *;
#X obj 57 512 *~;
#X obj 109 361 bng 15 250 50 0 empty empty empty 17 7 0 10 -262144
-1 -1;
#X obj 100 464 line~;
#X msg 100 439 \$1 100;
#X text 207 368 Watch the amplitude of the signal;
#X obj 57 540 outlet~;
#X obj 57 222 note 300 400;
#X connect 0 0 1 0;
#X connect 0 0 2 0;
#X connect 2 0 24 0;
#X connect 3 0 0 0;
#X connect 4 0 5 0;
#X connect 6 0 4 0;
#X connect 7 0 6 0;
#X connect 8 0 24 1;
#X connect 13 0 3 0;
#X connect 14 0 8 0;
#X connect 15 0 16 0;
#X connect 16 0 17 0;
#X connect 17 0 21 0;
#X connect 18 0 23 0;
#X connect 19 0 16 0;
#X connect 20 0 18 1;
#X connect 21 0 20 0;
#X connect 24 0 4 0;
#X connect 24 0 18 0;
